<svg xmlns="http://www.w3.org/2000/svg" viewBox="0 0 964.35 983.83"><defs><style>.cls-1{fill:none;stroke:#000;stroke-miterlimit:10;}</style></defs><g id="Layer_2" data-name="Layer 2"><g id="Layer_1-2" data-name="Layer 1"><path class="cls-1" d="M628.68,559.83a176.2,176.2,0,0,1-235.46,81.55A179.76,179.76,0,0,1,310,401.16C354.25,310,464,272,555.1,316.27c93,45.13,131.73,157.08,86.6,250-46.05,94.84-160.26,134.39-255.09,88.35-96.76-47-137.12-163.49-90.14-260.25,47.92-98.71,166.8-139.88,265.51-92,100.71,48.9,142.71,170.17,93.82,270.88C605.92,676.07,482.19,718.93,379.44,669,274.62,618.15,230.9,491.92,281.79,387.1c51.92-106.94,180.7-151.54,287.64-99.62,109.11,53,154.61,184.35,101.64,293.46C617,692.24,483,738.67,371.68,684.63,258.13,629.5,210.76,492.75,265.89,379.19,322.14,263.33,461.66,215,577.51,271.26,695.71,328.64,745,471,687.62,589.17,629.08,709.76,483.86,760.05,363.28,701.51c-123-59.73-174.34-207.88-114.61-330.9C309.61,245.1,460.75,192.75,586.26,253.69c128,62.16,181.45,216.36,119.29,344.41C642.12,728.74,484.81,783.22,354.17,719.8,220.89,655.09,165.31,494.6,230,361.32c66-136,229.76-192.68,365.73-126.67C734.46,302,792.32,469.05,725,607.77,656.26,749.3,485.83,808.32,344.31,739.61c-144.39-70.1-204.61-244-134.51-388.35C281.31,204,458.7,142.51,606,214,756.29,287,819,468,746,618.25,671.57,771.57,486.94,835.52,333.62,761.08,177.2,685.14,112,496.77,187.9,340.35c77.48-159.58,269.65-226.14,429.23-148.66,162.81,79,230.71,275.1,151.67,437.91C688.16,795.7,488.14,865,322,784.33,152.58,702.06,81.9,498,164.17,328.54c83.94-172.88,292.13-245,465-161.06,176.38,85.63,250,298,164.31,474.41-87.36,180-304,255-484,167.64-183.58-89.13-260.15-310.21-171-493.79C229.4,128.45,455,50.33,642.24,141.26c191.08,92.77,270.77,322.87,178,514C725.6,850.15,490.85,931.46,295.9,836.82,97,740.26,14.07,500.76,110.63,301.88,209.14,99,453.48,14.35,656.38,112.85c207,100.51,293.35,349.79,192.85,556.79-102.54,211.19-356.86,299.28-568,196.74C65.72,761.78-24.14,502.32,80.46,286.86,187.18,67,451.89-24.64,671.71,82.08,896,191,989.5,461,880.62,685.28,769.55,914.07,494,1009.5,265.23,898.42,31.82,785.09-65.54,504,47.78,270.58,163.4,32.45,450.17-66.88,688.31,48.74c243,118,344.28,410.52,226.33,653.47C794.3,950.07,495.82,1053.45,248,933.12"/></g></g></svg>